<svg xmlns="http://www.w3.org/2000/svg" xmlns:xlink="http://www.w3.org/1999/xlink" xmlns:lucid="lucid" width="1863" height="1078"><g transform="translate(1361.5 494)" lucid:page-tab-id="0_0"><path d="M-1500-500H500v1500h-2000z" fill="#fff"/><path d="M-1340 192.27a6 6 0 0 1 6-6h188a6 6 0 0 1 6 6v74a6 6 0 0 1-6 6h-188a6 6 0 0 1-6-6z" fill="#fff"/><path d="M-1340 229.27v-37a6 6 0 0 1 6-6h188a6 6 0 0 1 6 6v37" fill="#e08fff"/><path d="M-1340 192.27a6 6 0 0 1 6-6h188a6 6 0 0 1 6 6v74a6 6 0 0 1-6 6h-188a6 6 0 0 1-6-6zM-1340 229.27h200" stroke="#ba23f6" stroke-width="3" fill="none"/><use xlink:href="#a" transform="matrix(1,0,0,1,-1330,186.26592601812126) translate(60.89246961805557 30.034071180555554)"/><use xlink:href="#b" transform="matrix(1,0,0,1,-1335,231.76592601812126) translate(0 27.534071180555554)"/><use xlink:href="#c" transform="matrix(1,0,0,1,-1335,231.76592601812126) translate(62.36219618055553 27.534071180555554)"/><use xlink:href="#d" transform="matrix(1,0,0,1,-1335,231.76592601812126) translate(94.4249131944444 27.534071180555554)"/><path d="M-480 46a6 6 0 0 1 6-6h288a6 6 0 0 1 6 6v375a6 6 0 0 1-6 6h-288a6 6 0 0 1-6-6z" fill="#fff"/><path d="M-480 83V46a6 6 0 0 1 6-6h288a6 6 0 0 1 6 6v37" fill="#e08fff"/><path d="M-480 46a6 6 0 0 1 6-6h288a6 6 0 0 1 6 6v375a6 6 0 0 1-6 6h-288a6 6 0 0 1-6-6zM-480 83h300" stroke="#ba23f6" stroke-width="3" fill="none"/><use xlink:href="#e" transform="matrix(1,0,0,1,-470,40) translate(119.82855902777779 30.034071180555554)"/><use xlink:href="#f" transform="matrix(1,0,0,1,-475,85.5) translate(0 27.534071180555554)"/><use xlink:href="#c" transform="matrix(1,0,0,1,-475,85.5) translate(47.53689236111109 27.534071180555554)"/><use xlink:href="#d" transform="matrix(1,0,0,1,-475,85.5) translate(79.59960937499997 27.534071180555554)"/><use xlink:href="#g" transform="matrix(1,0,0,1,-475,128.5) translate(0 27.534071180555554)"/><use xlink:href="#h" transform="matrix(1,0,0,1,-475,128.5) translate(46.19683159722221 27.534071180555554)"/><use xlink:href="#b" transform="matrix(1,0,0,1,-475,171.5) translate(0 27.534071180555554)"/><use xlink:href="#c" transform="matrix(1,0,0,1,-475,171.5) translate(62.36219618055553 27.534071180555554)"/><use xlink:href="#i" transform="matrix(1,0,0,1,-475,171.5) translate(94.4249131944444 27.534071180555554)"/><use xlink:href="#g" transform="matrix(1,0,0,1,-475,214.5) translate(0 27.534071180555554)"/><use xlink:href="#j" transform="matrix(1,0,0,1,-475,214.5) translate(46.19683159722221 27.534071180555554)"/><use xlink:href="#g" transform="matrix(1,0,0,1,-475,257.5) translate(0 27.534071180555554)"/><use xlink:href="#k" transform="matrix(1,0,0,1,-475,257.5) translate(46.19683159722221 27.534071180555554)"/><use xlink:href="#l" transform="matrix(1,0,0,1,-475,300.5) translate(0 27.534071180555554)"/><use xlink:href="#c" transform="matrix(1,0,0,1,-475,300.5) translate(121.93142361111106 27.534071180555554)"/><use xlink:href="#i" transform="matrix(1,0,0,1,-475,300.5) translate(153.99414062499994 27.534071180555554)"/><use xlink:href="#g" transform="matrix(1,0,0,1,-475,343.5) translate(0 27.534071180555554)"/><use xlink:href="#m" transform="matrix(1,0,0,1,-475,343.5) translate(46.19683159722221 27.534071180555554)"/><use xlink:href="#n" transform="matrix(1,0,0,1,-475,343.5) translate(163.24761284722214 27.534071180555554)"/><use xlink:href="#i" transform="matrix(1,0,0,1,-475,343.5) translate(195.31032986111103 27.534071180555554)"/><use xlink:href="#o" transform="matrix(1,0,0,1,-475,386.5) translate(0 27.534071180555554)"/><use xlink:href="#c" transform="matrix(1,0,0,1,-475,386.5) translate(73.3506944444444 27.534071180555554)"/><use xlink:href="#i" transform="matrix(1,0,0,1,-475,386.5) translate(105.41341145833329 27.534071180555554)"/><path d="M-450-380.4a6 6 0 0 1 6-6h228a6 6 0 0 1 6 6v117a6 6 0 0 1-6 6h-228a6 6 0 0 1-6-6z" fill="#fff"/><path d="M-450-343.4v-37a6 6 0 0 1 6-6h228a6 6 0 0 1 6 6v37" fill="#e08fff"/><path d="M-450-380.4a6 6 0 0 1 6-6h228a6 6 0 0 1 6 6v117a6 6 0 0 1-6 6h-228a6 6 0 0 1-6-6zM-450-343.4h240" stroke="#ba23f6" stroke-width="3" fill="none"/><use xlink:href="#p" transform="matrix(1,0,0,1,-439.9999999999999,-386.39384219530484) translate(75.56749131944446 30.034071180555554)"/><use xlink:href="#o" transform="matrix(1,0,0,1,-444.9999999999999,-340.89384219530484) translate(0 27.534071180555554)"/><use xlink:href="#c" transform="matrix(1,0,0,1,-444.9999999999999,-340.89384219530484) translate(73.3506944444444 27.534071180555554)"/><use xlink:href="#d" transform="matrix(1,0,0,1,-444.9999999999999,-340.89384219530484) translate(105.41341145833329 27.534071180555554)"/><use xlink:href="#o" transform="matrix(1,0,0,1,-444.9999999999999,-297.89384219530484) translate(0 27.534071180555554)"/><use xlink:href="#q" transform="matrix(1,0,0,1,-444.9999999999999,-297.89384219530484) translate(73.3506944444444 27.534071180555554)"/><path d="M-980 146a6 6 0 0 1 6-6h248a6 6 0 0 1 6 6v332a6 6 0 0 1-6 6h-248a6 6 0 0 1-6-6z" fill="#fff"/><path d="M-980 183v-37a6 6 0 0 1 6-6h248a6 6 0 0 1 6 6v37" fill="#e08fff"/><path d="M-980 146a6 6 0 0 1 6-6h248a6 6 0 0 1 6 6v332a6 6 0 0 1-6 6h-248a6 6 0 0 1-6-6zM-980 183h260" stroke="#ba23f6" stroke-width="3" fill="none"/><use xlink:href="#r" transform="matrix(1,0,0,1,-970,140) translate(77.24500868055557 30.034071180555554)"/><use xlink:href="#s" transform="matrix(1,0,0,1,-975,185.5) translate(0 27.534071180555554)"/><use xlink:href="#c" transform="matrix(1,0,0,1,-975,185.5) translate(84.0288628472222 27.534071180555554)"/><use xlink:href="#d" transform="matrix(1,0,0,1,-975,185.5) translate(116.09157986111109 27.534071180555554)"/><use xlink:href="#b" transform="matrix(1,0,0,1,-975,228.5) translate(0 27.534071180555554)"/><use xlink:href="#c" transform="matrix(1,0,0,1,-975,228.5) translate(62.36219618055553 27.534071180555554)"/><use xlink:href="#i" transform="matrix(1,0,0,1,-975,228.5) translate(94.4249131944444 27.534071180555554)"/><use xlink:href="#t" transform="matrix(1,0,0,1,-975,271.5) translate(0 27.534071180555554)"/><use xlink:href="#u" transform="matrix(1,0,0,1,-975,314.5) translate(0 27.534071180555554)"/><use xlink:href="#v" transform="matrix(1,0,0,1,-975,357.5) translate(0 27.534071180555554)"/><use xlink:href="#w" transform="matrix(1,0,0,1,-975,357.5) translate(86.0601128472222 27.534071180555554)"/><use xlink:href="#x" transform="matrix(1,0,0,1,-975,400.5) translate(0 27.534071180555554)"/><use xlink:href="#o" transform="matrix(1,0,0,1,-975,443.5) translate(0 27.534071180555554)"/><use xlink:href="#y" transform="matrix(1,0,0,1,-975,443.5) translate(73.3506944444444 27.534071180555554)"/><path d="M-10.9-380.4a6 6 0 0 1 6-6H314a6 6 0 0 1 6 6v117a6 6 0 0 1-6 6H-4.9a6 6 0 0 1-6-6z" fill="#fff"/><path d="M-10.9-343.4v-37a6 6 0 0 1 6-6H314a6 6 0 0 1 6 6v37" fill="#e08fff"/><path d="M-10.9-380.4a6 6 0 0 1 6-6H314a6 6 0 0 1 6 6v117a6 6 0 0 1-6 6H-4.9a6 6 0 0 1-6-6zM-10.9-343.4H320" stroke="#ba23f6" stroke-width="3" fill="none"/><use xlink:href="#f" transform="matrix(1,0,0,1,-0.8886096803666987,-386.39384219530484) translate(76.80316840277781 30.034071180555554)"/><use xlink:href="#z" transform="matrix(1,0,0,1,-0.8886096803666987,-386.39384219530484) translate(124.34006076388891 30.034071180555554)"/><use xlink:href="#g" transform="matrix(1,0,0,1,-5.888609680366699,-340.89384219530484) translate(0 27.534071180555554)"/><use xlink:href="#m" transform="matrix(1,0,0,1,-5.888609680366699,-340.89384219530484) translate(46.19683159722221 27.534071180555554)"/><use xlink:href="#n" transform="matrix(1,0,0,1,-5.888609680366699,-340.89384219530484) translate(163.24761284722214 27.534071180555554)"/><use xlink:href="#d" transform="matrix(1,0,0,1,-5.888609680366699,-340.89384219530484) translate(195.31032986111103 27.534071180555554)"/><use xlink:href="#A" transform="matrix(1,0,0,1,-5.888609680366699,-297.89384219530484) translate(0 27.534071180555554)"/><use xlink:href="#q" transform="matrix(1,0,0,1,-5.888609680366699,-297.89384219530484) translate(117.05078124999994 27.534071180555554)"/><path d="M160-14a6 6 0 0 1 6-6h308a6 6 0 0 1 6 6v289a6 6 0 0 1-6 6H166a6 6 0 0 1-6-6z" fill="#fff"/><path d="M160 23v-37a6 6 0 0 1 6-6h308a6 6 0 0 1 6 6v37" fill="#e08fff"/><path d="M160-14a6 6 0 0 1 6-6h308a6 6 0 0 1 6 6v289a6 6 0 0 1-6 6H166a6 6 0 0 1-6-6zM160 23h320" stroke="#ba23f6" stroke-width="3" fill="none"/><use xlink:href="#B" transform="matrix(1,0,0,1,170,-20) translate(76.6422526041667 30.034071180555554)"/><use xlink:href="#C" transform="matrix(1,0,0,1,165,25.5) translate(0 27.534071180555554)"/><use xlink:href="#c" transform="matrix(1,0,0,1,165,25.5) translate(153.90950520833326 27.534071180555554)"/><use xlink:href="#d" transform="matrix(1,0,0,1,165,25.5) translate(185.97222222222214 27.534071180555554)"/><use xlink:href="#D" transform="matrix(1,0,0,1,165,68.5) translate(0 27.534071180555554)"/><use xlink:href="#E" transform="matrix(1,0,0,1,165,68.5) translate(150.18554687499991 27.534071180555554)"/><use xlink:href="#D" transform="matrix(1,0,0,1,165,111.5) translate(0 27.534071180555554)"/><use xlink:href="#F" transform="matrix(1,0,0,1,165,111.5) translate(150.18554687499991 27.534071180555554)"/><use xlink:href="#b" transform="matrix(1,0,0,1,165,154.5) translate(0 27.534071180555554)"/><use xlink:href="#c" transform="matrix(1,0,0,1,165,154.5) translate(62.36219618055553 27.534071180555554)"/><use xlink:href="#i" transform="matrix(1,0,0,1,165,154.5) translate(94.4249131944444 27.534071180555554)"/><use xlink:href="#g" transform="matrix(1,0,0,1,165,197.5) translate(0 27.534071180555554)"/><use xlink:href="#c" transform="matrix(1,0,0,1,165,197.5) translate(46.19683159722221 27.534071180555554)"/><use xlink:href="#i" transform="matrix(1,0,0,1,165,197.5) translate(78.25954861111109 27.534071180555554)"/><use xlink:href="#G" transform="matrix(1,0,0,1,165,240.5) translate(0 27.534071180555554)"/><path d="M-920-374a6 6 0 0 1 6-6h328a6 6 0 0 1 6 6v289a6 6 0 0 1-6 6h-328a6 6 0 0 1-6-6z" fill="#fff"/><path d="M-920-337v-37a6 6 0 0 1 6-6h328a6 6 0 0 1 6 6v37" fill="#e08fff"/><path d="M-920-374a6 6 0 0 1 6-6h328a6 6 0 0 1 6 6v289a6 6 0 0 1-6 6h-328a6 6 0 0 1-6-6zM-920-337h340" stroke="#ba23f6" stroke-width="3" fill="none"/><use xlink:href="#H" transform="matrix(1,0,0,1,-910,-380) translate(102.6312934027778 30.034071180555554)"/><use xlink:href="#l" transform="matrix(1,0,0,1,-915,-334.5) translate(0 27.534071180555554)"/><use xlink:href="#c" transform="matrix(1,0,0,1,-915,-334.5) translate(121.93142361111106 27.534071180555554)"/><use xlink:href="#d" transform="matrix(1,0,0,1,-915,-334.5) translate(153.99414062499994 27.534071180555554)"/><use xlink:href="#l" transform="matrix(1,0,0,1,-915,-291.5) translate(0 27.534071180555554)"/><use xlink:href="#q" transform="matrix(1,0,0,1,-915,-291.5) translate(121.93142361111106 27.534071180555554)"/><use xlink:href="#l" transform="matrix(1,0,0,1,-915,-248.5) translate(0 27.534071180555554)"/><use xlink:href="#I" transform="matrix(1,0,0,1,-915,-248.5) translate(121.93142361111106 27.534071180555554)"/><use xlink:href="#J" transform="matrix(1,0,0,1,-915,-205.5) translate(0 27.534071180555554)"/><use xlink:href="#K" transform="matrix(1,0,0,1,-915,-162.5) translate(0 27.534071180555554)"/><g><use xlink:href="#t" transform="matrix(1,0,0,1,-915,-119.5) translate(0 27.534071180555554)"/></g><path d="M-1118.5 208.3h56.6a1.9 1.9 0 0 0 1.9-1.9 1.9 1.9 0 0 1 1.9-1.9h56.6" stroke="#ba23f6" stroke-width="3" fill="none"/><path d="M-1118.5 218.3v-20M-1138.5 208.3h20M-1001.5 194.5v20M-981.5 204.5h-20" stroke="#ba23f6" stroke-width="3" fill="#fff"/><path d="M140.26 87.5H-4a6 6 0 0 0-6 6v48a6 6 0 0 1-6 6h-142.5" stroke="#ba23f6" stroke-width="3" fill="none"/><path d="M157.83 97.5l-20-10 20-10" stroke="#ba23f6" stroke-width="3" fill="#fff" fill-opacity="0"/><path d="M157.83 87.5h-20M-158.5 157.5v-20M-178.5 147.5h20" stroke="#ba23f6" stroke-width="3" fill="#fff"/><path d="M-558.5-270.64h22.5a6 6 0 0 1 6 6V55.5a6 6 0 0 0 6 6h24.26" stroke="#ba23f6" stroke-width="3" fill="none"/><path d="M-558.5-260.64v-20M-578.5-270.64h20" stroke="#ba23f6" stroke-width="3" fill="#fff"/><path d="M-482.17 71.5l-20-10 20-10" stroke="#ba23f6" stroke-width="3" fill="#fff" fill-opacity="0"/><path d="M-482.17 61.5h-20" stroke="#ba23f6" stroke-width="3" fill="#fff"/><path d="M-330-237.66V20.26" stroke="#ba23f6" stroke-width="3" fill="none"/><path d="M-320-255.22l-10 20-10-20" stroke="#ba23f6" stroke-width="3" fill="#fff" fill-opacity="0"/><path d="M-330-255.22v20" stroke="#ba23f6" stroke-width="3" fill="#fff"/><path d="M-340 37.83l10-20 10 20" stroke="#ba23f6" stroke-width="3" fill="#fff" fill-opacity="0"/><path d="M-330 37.83v-20" stroke="#ba23f6" stroke-width="3" fill="#fff"/><path d="M-1299.56 293.77V574a6 6 0 0 0 6 6H314a6 6 0 0 0 6-6V300.74" stroke="#ba23f6" stroke-width="3" fill="none"/><path d="M-1309.56 293.77h20M-1299.56 273.77v20" stroke="#ba23f6" stroke-width="3" fill="#fff"/><path d="M330 283.17l-10 20-10-20" stroke="#ba23f6" stroke-width="3" fill="#fff" fill-opacity="0"/><path d="M320 283.17v20" stroke="#ba23f6" stroke-width="3" fill="#fff"/><path d="M154.56-407.9v-14a6 6 0 0 0-6-6H-132.5a6 6 0 0 0-6 6V98.5a6 6 0 0 1-6 6h-15.76" stroke="#ba23f6" stroke-width="3" fill="none"/><path d="M164.56-407.9h-20M154.56-387.9v-20" stroke="#ba23f6" stroke-width="3" fill="#fff"/><path d="M-177.83 94.5l20 10-20 10" stroke="#ba23f6" stroke-width="3" fill="#fff" fill-opacity="0"/><path d="M-177.83 104.5h20" stroke="#ba23f6" stroke-width="3" fill="#fff"/><path d="M-1240 293.77V524a6 6 0 0 0 6 6h706.5a6 6 0 0 0 6-6V239.5a6 6 0 0 1 6-6h15.76" stroke="#ba23f6" stroke-width="3" fill="none"/><path d="M-1250 293.77h20M-1240 273.77v20" stroke="#ba23f6" stroke-width="3" fill="#fff"/><path d="M-482.17 243.5l-20-10 20-10" stroke="#ba23f6" stroke-width="3" fill="#fff" fill-opacity="0"/><path d="M-482.17 233.5h-20" stroke="#ba23f6" stroke-width="3" fill="#fff"/><path d="M-850 120.27a4.76 4.76 0 0 0-4.76-4.77H-1104a6 6 0 0 1-6-6V-484a6 6 0 0 1 6-6h768a6 6 0 0 1 6 6v77.87" stroke="#ba23f6" stroke-width="3" fill="none"/><path d="M-860 137.83l10-20 10 20" stroke="#ba23f6" stroke-width="3" fill="#fff" fill-opacity="0"/><path d="M-850 137.83v-20" stroke="#ba23f6" stroke-width="3" fill="#fff"/><path d="M-340-388.56l10-20 10 20" stroke="#ba23f6" stroke-width="3" fill="#fff" fill-opacity="0"/><path d="M-330-388.56v-20" stroke="#ba23f6" stroke-width="3" fill="#fff"/><defs><path fill="#3a414a" d="M743-115c200-5 257-179 257-383v-627c0-8-10-18-32-30s-57-23-105-32v-73h450v73c-45 9-80 20-103 31s-35 22-35 31v601c-2 264-110 436-295 516-60 25-127 38-199 38-309 0-501-160-501-474v-681c0-8-10-18-32-30s-57-23-105-32v-73h525v73c-45 9-80 20-103 31s-35 22-35 31v616c0 238 75 400 313 394" id="L"/><path fill="#3a414a" d="M547-808c-63-73-243-61-239 50 3 86 72 111 134 148 111 66 258 113 318 230 15 28 22 60 22 97C778-32 571 47 316 26 231 19 152-9 90-43c-26-75-10-216 7-293l81 11c29 127 98 232 242 232 90 0 142-26 142-112 0-138-143-173-241-229-81-46-168-92-212-173-33-59-21-140 9-197 90-174 455-200 628-79 8 74-29 165-58 217l-69-8c-17-59-43-101-72-134" id="M"/><path fill="#3a414a" d="M687-616c0-120-53-224-176-224-146 0-179 124-195 260h333c31-1 38-6 38-36zm233 421C797-79 706 34 480 30 277 26 159-94 98-249c-51-132-43-317 18-435 76-147 214-276 431-276 252 0 370 162 379 410-35 35-91 61-140 82H313c10 180 71 330 251 330 142 0 208-61 304-121 21 14 39 43 52 64" id="N"/><path fill="#3a414a" d="M418-773c69-91 151-187 299-187 60 0 116 20 158 44 4 3 6 12 6 26 0 113-38 223-71 311h-73c-7-74-23-146-67-181-43-34-105-7-137 22-48 43-80 95-113 167v437c0 10 14 20 42 31s72 21 135 30V0H48v-73c88-20 132-40 132-61-1-195-2-395-2-586 0-82-49-99-130-98v-70c121-16 215-37 315-72l42 42" id="O"/><g id="a"><use transform="matrix(0.014105902777777773,0,0,0.014105902777777773,0,0)" xlink:href="#L"/><use transform="matrix(0.014105902777777773,0,0,0.014105902777777773,19.31098090277777,0)" xlink:href="#M"/><use transform="matrix(0.014105902777777773,0,0,0.014105902777777773,31.4138454861111,0)" xlink:href="#N"/><use transform="matrix(0.014105902777777773,0,0,0.014105902777777773,45.39279513888887,0)" xlink:href="#O"/></g><path fill="#3a414a" d="M618-902c125-11 230-32 335-58l37 46c1 227-3 457 1 682 1 43 7 81 55 72 14-3 39-12 73-27l25 75C1059-61 962 2 858 30c-84-6-95-83-108-166C647-55 571 30 408 30 227 30 155-88 155-279c-1-160 4-328-1-485-2-65-55-59-120-68v-70c123-10 226-26 326-58l35 46v572c2 110 10 203 116 199 111-4 169-63 239-119-2-165 6-340-4-499-4-64-57-67-128-71v-70" id="P"/><g id="b"><use transform="matrix(0.014105902777777773,0,0,0.014105902777777773,0,0)" xlink:href="#P"/><use transform="matrix(0.014105902777777773,0,0,0.014105902777777773,16.26410590277777,0)" xlink:href="#M"/><use transform="matrix(0.014105902777777773,0,0,0.014105902777777773,28.3669704861111,0)" xlink:href="#N"/><use transform="matrix(0.014105902777777773,0,0,0.014105902777777773,42.34592013888887,0)" xlink:href="#O"/></g><path fill="#3a414a" d="M63-888c112-16 215-38 308-72h64v826c0 8 10 18 30 30s54 22 103 31V0H63v-73c45-9 79-20 100-31s32-21 32-30c-1-198 2-400-1-596-1-77-54-79-131-88v-70zm272-483c78 0 138 32 138 110 0 98-68 152-168 152-79 0-137-33-137-111 0-98 69-151 167-151" id="Q"/><path fill="#3a414a" d="M608-1485c121-11 249-37 339-65l38 37c1 424-6 852 1 1273 1 44 4 85 54 78 27-4 45-13 73-25l28 73C1051-58 957 4 844 30c-48 0-79-58-92-175C662-60 594 30 431 30 250 30 151-100 97-245c-43-117-45-275 3-393 72-177 212-322 451-322 86 0 134 17 194 59-1-141 2-293-1-431-2-78-58-77-136-84v-69zM450-183c118 65 220-16 295-86v-437c-42-68-108-122-210-122-175 0-230 145-230 330 0 149 51 263 145 315" id="R"/><g id="c"><use transform="matrix(0.014105902777777773,0,0,0.014105902777777773,0,0)" xlink:href="#Q"/><use transform="matrix(0.014105902777777773,0,0,0.014105902777777773,8.67513020833333,0)" xlink:href="#R"/></g><path fill="#3a414a" d="M366-651c0 389 93 697 289 891l-54 75C291 148 106-154 106-623c0-475 196-791 495-977l54 75c-188 194-289 489-289 874" id="S"/><path fill="#3a414a" d="M835-895c0-223-165-306-405-287v1048c11 29 46 34 83 44 22 6 50 11 85 17V0H43v-73c45-9 80-20 103-31s34-21 34-30v-1024c-47 6-93 13-137 20l-13-92c266-56 702-113 915 31 82 54 142 136 142 263 0 233-144 351-331 404-86 24-194 10-261-18l-31-105c48 22 79 30 139 30 154 0 232-108 232-270" id="T"/><path fill="#3a414a" d="M1264-52c-81 23-166 66-263 66-47 0-70-13-94-43L430-625v491c0 8 10 18 32 30s57 22 106 31V0H43v-73c45-9 80-20 103-31s34-21 34-30v-991c0-8-10-18-32-30s-57-23-105-32v-73h525v73c-45 9-80 20-103 31s-35 22-35 31v466l372-439c19-27 39-38 36-68-18-17-49-17-88-21v-73h450v73c-71 7-117 23-155 62L616-676l482 511c30 41 90 50 159 40" id="U"/><path fill="#3a414a" d="M80-1599c309 168 495 468 495 937 0 476-196 792-495 978l-54-75C214 47 315-248 315-634c0-388-93-697-289-890" id="V"/><g id="d"><use transform="matrix(0.014105902777777773,0,0,0.014105902777777773,0,0)" xlink:href="#S"/><use transform="matrix(0.014105902777777773,0,0,0.014105902777777773,9.577907986111107,0)" xlink:href="#T"/><use transform="matrix(0.014105902777777773,0,0,0.014105902777777773,25.9548611111111,0)" xlink:href="#U"/><use transform="matrix(0.014105902777777773,0,0,0.014105902777777773,43.82703993055554,0)" xlink:href="#V"/></g><path fill="#3a414a" d="M-97 163c58 49 108 87 189 87 93 0 112-80 130-172 9-47 13-110 13-189v-1014c-12-31-51-34-91-45-24-7-56-11-96-17v-73h575v73c-45 9-80 20-103 31s-35 22-35 31v942c3 283-130 423-297 535-90 60-263 92-378 30-40-21-105-44-54-94 41-41 95-98 147-125" id="W"/><path fill="#3a414a" d="M547-95c182-3 211-159 211-345 0-159-46-293-136-363-28-21-59-32-93-32-183 0-211 174-211 362 0 156 53 282 142 349 28 20 56 29 87 29zm197-829c193 78 317 304 248 570C945-174 822-46 648 10 468 68 279-10 189-105 84-216 25-453 102-636c75-177 215-324 456-324 68 0 130 13 186 36" id="X"/><path fill="#3a414a" d="M597-138c150 0 207-123 207-278 0-165-34-294-136-352-26-15-55-20-86-20-92 0-144 50-217 110v460c77 42 148 80 232 80zM365-802c94-76 190-158 340-158 237 0 320 206 320 453 0 216-140 349-275 449-65 48-150 88-251 88-145 0-261-74-374-126v-1170c-1-70 1-115-57-125-16-3-38-6-65-9v-70c117-19 223-41 318-80 13 13 30 27 44 41v707" id="Y"/><g id="e"><use transform="matrix(0.014105902777777773,0,0,0.014105902777777773,0,0)" xlink:href="#W"/><use transform="matrix(0.014105902777777773,0,0,0.014105902777777773,9.662543402777775,0)" xlink:href="#X"/><use transform="matrix(0.014105902777777773,0,0,0.014105902777777773,24.82638888888888,0)" xlink:href="#Y"/></g><g id="f"><use transform="matrix(0.014105902777777773,0,0,0.014105902777777773,0,0)" xlink:href="#W"/><use transform="matrix(0.014105902777777773,0,0,0.014105902777777773,9.662543402777775,0)" xlink:href="#X"/><use transform="matrix(0.014105902777777773,0,0,0.014105902777777773,24.82638888888888,0)" xlink:href="#Y"/></g><path fill="#3a414a" d="M58-888c118-15 207-39 305-72h67v853c5 319-148 458-354 567-103 55-271 23-342-32-33-25-26-35 0-66 38-46 98-94 150-124 40 44 99 82 176 82 89 0 110-86 120-179 29-263 9-587 9-871 0-76-56-78-131-88v-70zm276-483c78 0 137 32 137 110 0 99-68 152-167 152-79 0-138-32-138-111 0-98 70-151 168-151" id="Z"/><g id="g"><use transform="matrix(0.014105902777777773,0,0,0.014105902777777773,0,0)" xlink:href="#Z"/><use transform="matrix(0.014105902777777773,0,0,0.014105902777777773,8.322482638888886,0)" xlink:href="#X"/><use transform="matrix(0.014105902777777773,0,0,0.014105902777777773,23.486328124999993,0)" xlink:href="#Y"/></g><path fill="#3a414a" d="M480-153c90 0 143-40 212-75l44 73C647-91 572-44 511-14S401 30 366 30C216 30 155-87 155-244v-561H34L5-841l78-89h72v-209l202-149 38 33v325h305l36 36c-27 45-62 92-101 124-61-29-146-39-240-35v468c3 90 5 184 85 184" id="aa"/><path fill="#3a414a" d="M63-1470c123-17 231-39 329-80l43 41v1375c9 30 42 35 75 46 18 6 41 10 68 15V0H53v-73c57-11 103-17 136-45 4-5 6-11 6-16v-1132c0-71-5-115-64-124-17-3-40-7-68-10v-70" id="ab"/><g id="h"><use transform="matrix(0.014105902777777773,0,0,0.014105902777777773,0,0)" xlink:href="#aa"/><use transform="matrix(0.014105902777777773,0,0,0.014105902777777773,10.692274305555552,0)" xlink:href="#Q"/><use transform="matrix(0.014105902777777773,0,0,0.014105902777777773,19.367404513888882,0)" xlink:href="#aa"/><use transform="matrix(0.014105902777777773,0,0,0.014105902777777773,30.059678819444432,0)" xlink:href="#ab"/><use transform="matrix(0.014105902777777773,0,0,0.014105902777777773,38.734809027777764,0)" xlink:href="#N"/></g><path fill="#3a414a" d="M739-574c-55-66-187-55-309-55v495c14 28 49 33 86 44 21 7 49 11 82 17V0H43v-73c45-9 80-20 103-31s34-21 34-30v-991c0-8-10-18-32-30s-57-23-105-32v-73h891l38 32c-6 92-19 200-39 278h-77c-2-62-10-110-24-142s-33-48-58-48H430v405h367l36 35c-25 46-57 93-94 126" id="ac"/><g id="i"><use transform="matrix(0.014105902777777773,0,0,0.014105902777777773,0,0)" xlink:href="#S"/><use transform="matrix(0.014105902777777773,0,0,0.014105902777777773,9.577907986111107,0)" xlink:href="#ac"/><use transform="matrix(0.014105902777777773,0,0,0.014105902777777773,24.233940972222214,0)" xlink:href="#U"/><use transform="matrix(0.014105902777777773,0,0,0.014105902777777773,42.10611979166666,0)" xlink:href="#V"/></g><path fill="#3a414a" d="M567-138c129-2 186-59 272-116l54 64C782-73 692 30 480 30 279 30 161-92 100-245c-47-118-44-283 5-401 91-217 343-368 656-292 46 11 97 29 124 57-11 97-44 188-79 261l-67-10c-41-109-79-205-209-205-176 0-225 169-225 360 0 155 58 262 160 314 32 15 66 23 102 23" id="ad"/><path fill="#3a414a" d="M681-138c187 0 198-281 154-453-28-109-88-199-212-199-97 0-134 64-203 112v450c84 45 144 90 261 90zM414-795c110-97 268-221 458-137 142 63 208 220 208 432 0 207-102 348-215 451-45 41-101 79-174 79-122 0-189-60-271-113v428c0 11 13 21 38 32s68 21 131 30v73H48v-73c44-11 77-21 99-31s33-20 33-31c-2-364 10-736-3-1095-2-61-59-64-129-68v-70c122-14 218-35 315-72l42 42" id="ae"/><path fill="#3a414a" d="M814-960c151 0 221 99 221 256v570c8 28 38 30 68 42 17 7 39 12 65 19V0H663v-73c48-13 82-24 102-33s30-19 30-28v-454c-3-102-4-195-105-190-125 7-188 76-270 139v505c0 10 11 20 34 31s56 21 99 30V0H48v-73c44-11 77-22 99-31s33-19 33-30c-1-205 6-414-2-617-2-64-63-55-130-67v-70c119-13 221-35 315-72l42 42 11 144c121-102 230-186 398-186" id="af"/><g id="j"><use transform="matrix(0.014105902777777773,0,0,0.014105902777777773,0,0)" xlink:href="#R"/><use transform="matrix(0.014105902777777773,0,0,0.014105902777777773,16.193576388888882,0)" xlink:href="#N"/><use transform="matrix(0.014105902777777773,0,0,0.014105902777777773,30.172526041666657,0)" xlink:href="#M"/><use transform="matrix(0.014105902777777773,0,0,0.014105902777777773,42.275390624999986,0)" xlink:href="#ad"/><use transform="matrix(0.014105902777777773,0,0,0.014105902777777773,55.43619791666665,0)" xlink:href="#O"/><use transform="matrix(0.014105902777777773,0,0,0.014105902777777773,68.25846354166664,0)" xlink:href="#ae"/><use transform="matrix(0.014105902777777773,0,0,0.014105902777777773,84.4097222222222,0)" xlink:href="#aa"/><use transform="matrix(0.014105902777777773,0,0,0.014105902777777773,95.10199652777776,0)" xlink:href="#Q"/><use transform="matrix(0.014105902777777773,0,0,0.014105902777777773,103.77712673611109,0)" xlink:href="#X"/><use transform="matrix(0.014105902777777773,0,0,0.014105902777777773,118.94097222222219,0)" xlink:href="#af"/></g><path fill="#3a414a" d="M319-259c0 68 31 114 93 114 98 0 147-56 211-105v-221c-153 26-304 50-304 212zm584 99c38 0 59-16 91-27l22 75C927-56 834 9 717 30c-65-8-88-81-93-159C538-47 445 30 293 30 154 30 65-56 65-201c0-127 64-194 141-247 107-73 248-95 417-121v-118c9-110-74-169-178-134-46 15-82 54-78 119-52 44-150 61-229 78-15 2-26 3-31 2l-21-54c84-172 266-284 511-284 166 0 266 79 266 240v482c0 44 7 78 40 78" id="ag"/><path fill="#3a414a" d="M1027-857c-52 13-92 21-110 68L583 75c-71 175-154 321-316 394-97 43-242 24-311-23-29-19-21-25-1-56 32-50 83-111 130-145 52 34 119 57 188 33 96-33 146-148 186-255L124-789c-20-44-53-54-111-68v-73h453v73c-40 6-69 7-90 23-15 12-7 27 0 45l206 502c67-176 140-348 204-527-5-37-47-32-86-43v-73h327v73" id="ah"/><g id="k"><use transform="matrix(0.014105902777777773,0,0,0.014105902777777773,0,0)" xlink:href="#M"/><use transform="matrix(0.014105902777777773,0,0,0.014105902777777773,12.102864583333329,0)" xlink:href="#ag"/><use transform="matrix(0.014105902777777773,0,0,0.014105902777777773,26.53320312499999,0)" xlink:href="#ab"/><use transform="matrix(0.014105902777777773,0,0,0.014105902777777773,35.20833333333332,0)" xlink:href="#ag"/><use transform="matrix(0.014105902777777773,0,0,0.014105902777777773,49.638671874999986,0)" xlink:href="#O"/><use transform="matrix(0.014105902777777773,0,0,0.014105902777777773,62.46093749999998,0)" xlink:href="#ah"/></g><path fill="#3a414a" d="M1328-960c158 0 237 93 237 256v570c0 9 10 19 31 28s57 20 110 33V0h-497v-73c47-13 83-21 111-47 3-4 5-9 5-14v-469c-3-102-2-192-105-185-95 7-161 63-227 125v529c7 28 33 31 62 42 16 6 38 12 64 19V0H636v-73c47-13 85-21 112-47 3-4 5-9 5-14v-469c-3-100 4-193-98-185s-158 61-235 125v529c0 10 10 20 30 31s52 21 95 30V0H48v-73c44-11 77-22 99-31s33-19 33-30c-1-205 9-417-2-618-3-61-66-54-130-66v-70c120-13 219-36 315-72l42 42 11 124c100-81 183-166 347-166 125 0 197 59 215 166 101-81 185-166 350-166" id="ai"/><g id="l"><use transform="matrix(0.014105902777777773,0,0,0.014105902777777773,0,0)" xlink:href="#ad"/><use transform="matrix(0.014105902777777773,0,0,0.014105902777777773,13.160807291666663,0)" xlink:href="#X"/><use transform="matrix(0.014105902777777773,0,0,0.014105902777777773,28.324652777777768,0)" xlink:href="#ai"/><use transform="matrix(0.014105902777777773,0,0,0.014105902777777773,52.69965277777776,0)" xlink:href="#ae"/><use transform="matrix(0.014105902777777773,0,0,0.014105902777777773,68.85091145833331,0)" xlink:href="#ag"/><use transform="matrix(0.014105902777777773,0,0,0.014105902777777773,83.28124999999997,0)" xlink:href="#af"/><use transform="matrix(0.014105902777777773,0,0,0.014105902777777773,100.06727430555551,0)" xlink:href="#ah"/></g><path fill="#3a414a" d="M522-415c101 0 146-78 146-185 0-142-66-245-207-245-97 0-146 80-146 186 0 144 63 244 207 244zm53 765c133-2 230-54 230-178 0-69-58-86-121-106-79-25-213-31-297-54-63 50-124 78-132 171 13 95 103 130 193 153 39 10 82 14 127 14zM854-792c51 72 59 207 10 292-71 123-201 204-391 205-35 33-49 49-59 84 3 21 11 28 34 35 189 59 495 33 572 193 50 103-10 216-63 273-120 128-305 228-561 196-155-20-294-66-359-177-38-65-21-150 27-193 58-53 118-95 202-141-87-42-137-66-104-127 37-68 103-114 172-162C198-355 85-434 85-602c0-179 131-276 271-330 132-52 312-27 404 42 96-10 198-45 269-70l28 37c-14 41-34 82-57 115-48 8-91 13-146 16" id="aj"/><g id="m"><use transform="matrix(0.014105902777777773,0,0,0.014105902777777773,0,0)" xlink:href="#ad"/><use transform="matrix(0.014105902777777773,0,0,0.014105902777777773,13.160807291666663,0)" xlink:href="#ag"/><use transform="matrix(0.014105902777777773,0,0,0.014105902777777773,27.59114583333332,0)" xlink:href="#aa"/><use transform="matrix(0.014105902777777773,0,0,0.014105902777777773,38.28342013888887,0)" xlink:href="#N"/><use transform="matrix(0.014105902777777773,0,0,0.014105902777777773,52.26236979166664,0)" xlink:href="#aj"/><use transform="matrix(0.014105902777777773,0,0,0.014105902777777773,67.2005208333333,0)" xlink:href="#X"/><use transform="matrix(0.014105902777777773,0,0,0.014105902777777773,82.3643663194444,0)" xlink:href="#O"/><use transform="matrix(0.014105902777777773,0,0,0.014105902777777773,95.1866319444444,0)" xlink:href="#ah"/></g><g id="n"><use transform="matrix(0.014105902777777773,0,0,0.014105902777777773,0,0)" xlink:href="#Q"/><use transform="matrix(0.014105902777777773,0,0,0.014105902777777773,8.67513020833333,0)" xlink:href="#R"/></g><path fill="#3a414a" d="M1137-33c-109 17-285 88-359-10L420-517v383c3 28 26 30 51 41 14 6 34 12 59 20V0H48v-73c44-11 77-21 99-30s33-19 33-31v-1132c0-72-3-116-63-125-17-3-40-6-69-9v-70c124-19 232-37 328-80l44 41v975l263-235c22-20 37-35 43-47 22-42-32-40-71-41v-73h447v73c-71 9-125 31-175 69L623-558l361 409c28 39 78 50 147 43" id="ak"/><g id="o"><use transform="matrix(0.014105902777777773,0,0,0.014105902777777773,0,0)" xlink:href="#M"/><use transform="matrix(0.014105902777777773,0,0,0.014105902777777773,12.102864583333329,0)" xlink:href="#ak"/><use transform="matrix(0.014105902777777773,0,0,0.014105902777777773,28.028428819444436,0)" xlink:href="#Q"/><use transform="matrix(0.014105902777777773,0,0,0.014105902777777773,36.703559027777764,0)" xlink:href="#ab"/><use transform="matrix(0.014105902777777773,0,0,0.014105902777777773,45.37868923611109,0)" xlink:href="#ab"/><use transform="matrix(0.014105902777777773,0,0,0.014105902777777773,54.05381944444442,0)" xlink:href="#M"/></g><path fill="#3a414a" d="M644-1140c-115-71-322-32-312 118 8 121 112 163 201 211 153 82 329 146 407 303 48 97 22 239-26 316C821-43 638 56 388 23 288 10 187-22 116-68c-27-84-10-232 8-316l71 5c44 110 112 202 218 247 31 13 64 19 98 19 132 0 232-64 232-196 0-191-180-234-315-303-146-75-316-135-316-348 0-157 120-245 251-296 162-62 445-37 543 58 4 63-40 124-67 170-6 11-14 18-19 23l-66-6c-26-57-62-99-110-129" id="al"/><g id="p"><use transform="matrix(0.014105902777777773,0,0,0.014105902777777773,0,0)" xlink:href="#al"/><use transform="matrix(0.014105902777777773,0,0,0.014105902777777773,14.81119791666666,0)" xlink:href="#ak"/><use transform="matrix(0.014105902777777773,0,0,0.014105902777777773,30.736762152777768,0)" xlink:href="#Q"/><use transform="matrix(0.014105902777777773,0,0,0.014105902777777773,39.41189236111109,0)" xlink:href="#ab"/><use transform="matrix(0.014105902777777773,0,0,0.014105902777777773,48.08702256944442,0)" xlink:href="#ab"/><use transform="matrix(0.014105902777777773,0,0,0.014105902777777773,56.76215277777775,0)" xlink:href="#M"/></g><g id="q"><use transform="matrix(0.014105902777777773,0,0,0.014105902777777773,0,0)" xlink:href="#af"/><use transform="matrix(0.014105902777777773,0,0,0.014105902777777773,16.78602430555555,0)" xlink:href="#ag"/><use transform="matrix(0.014105902777777773,0,0,0.014105902777777773,31.21636284722221,0)" xlink:href="#ai"/><use transform="matrix(0.014105902777777773,0,0,0.014105902777777773,55.5913628472222,0)" xlink:href="#N"/></g><path fill="#3a414a" d="M711-894c-26 44-61 91-98 124-49-23-101-36-188-35v673c6 15 21 18 43 24 49 14 96 23 159 35V0H53v-73c46-8 80-17 101-29s31-22 31-30v-673H66l-28-36 78-89h69c-10-311 117-483 323-587 113-57 285-18 362 38 42 31 5 63-13 85-35 43-83 82-131 111-48-60-94-101-170-112-90 11-103 95-120 190-12 65-12 183-11 275h249" id="am"/><g id="r"><use transform="matrix(0.014105902777777773,0,0,0.014105902777777773,0,0)" xlink:href="#T"/><use transform="matrix(0.014105902777777773,0,0,0.014105902777777773,16.376953124999993,0)" xlink:href="#O"/><use transform="matrix(0.014105902777777773,0,0,0.014105902777777773,29.199218749999982,0)" xlink:href="#X"/><use transform="matrix(0.014105902777777773,0,0,0.014105902777777773,44.36306423611109,0)" xlink:href="#am"/><use transform="matrix(0.014105902777777773,0,0,0.014105902777777773,54.18077256944442,0)" xlink:href="#Q"/><use transform="matrix(0.014105902777777773,0,0,0.014105902777777773,62.85590277777776,0)" xlink:href="#ab"/><use transform="matrix(0.014105902777777773,0,0,0.014105902777777773,71.53103298611109,0)" xlink:href="#N"/></g><g id="s"><use transform="matrix(0.014105902777777773,0,0,0.014105902777777773,0,0)" xlink:href="#T"/><use transform="matrix(0.014105902777777773,0,0,0.014105902777777773,16.376953124999993,0)" xlink:href="#O"/><use transform="matrix(0.014105902777777773,0,0,0.014105902777777773,29.199218749999982,0)" xlink:href="#X"/><use transform="matrix(0.014105902777777773,0,0,0.014105902777777773,44.36306423611109,0)" xlink:href="#am"/><use transform="matrix(0.014105902777777773,0,0,0.014105902777777773,54.18077256944442,0)" xlink:href="#Q"/><use transform="matrix(0.014105902777777773,0,0,0.014105902777777773,62.85590277777776,0)" xlink:href="#N"/></g><g id="t"><use transform="matrix(0.014105902777777773,0,0,0.014105902777777773,0,0)" xlink:href="#N"/><use transform="matrix(0.014105902777777773,0,0,0.014105902777777773,13.978949652777773,0)" xlink:href="#ai"/><use transform="matrix(0.014105902777777773,0,0,0.014105902777777773,38.353949652777764,0)" xlink:href="#ag"/><use transform="matrix(0.014105902777777773,0,0,0.014105902777777773,52.78428819444443,0)" xlink:href="#Q"/><use transform="matrix(0.014105902777777773,0,0,0.014105902777777773,61.45941840277776,0)" xlink:href="#ab"/></g><g id="u"><use transform="matrix(0.014105902777777773,0,0,0.014105902777777773,0,0)" xlink:href="#O"/><use transform="matrix(0.014105902777777773,0,0,0.014105902777777773,12.822265624999995,0)" xlink:href="#X"/><use transform="matrix(0.014105902777777773,0,0,0.014105902777777773,27.9861111111111,0)" xlink:href="#ab"/><use transform="matrix(0.014105902777777773,0,0,0.014105902777777773,36.66124131944443,0)" xlink:href="#N"/></g><path fill="#3a414a" d="M814-960c151 0 221 99 221 256v570c8 28 38 30 68 42 17 7 39 12 65 19V0H663v-73c48-13 82-24 102-33s30-19 30-28v-439c-2-110-6-210-113-205-117 5-174 73-262 139v505c0 10 11 20 34 31s56 21 99 30V0H48v-73c44-11 77-22 99-31s33-19 33-30c-2-399 10-806-2-1200-2-63-65-55-130-66v-70c124-17 229-40 328-80l44 41v727c119-96 229-178 394-178" id="an"/><g id="v"><use transform="matrix(0.014105902777777773,0,0,0.014105902777777773,0,0)" xlink:href="#ae"/><use transform="matrix(0.014105902777777773,0,0,0.014105902777777773,16.15125868055555,0)" xlink:href="#an"/><use transform="matrix(0.014105902777777773,0,0,0.014105902777777773,32.9372829861111,0)" xlink:href="#X"/><use transform="matrix(0.014105902777777773,0,0,0.014105902777777773,48.10112847222221,0)" xlink:href="#af"/><use transform="matrix(0.014105902777777773,0,0,0.014105902777777773,64.88715277777776,0)" xlink:href="#N"/></g><g id="w"><use transform="matrix(0.014105902777777773,0,0,0.014105902777777773,0,0)" xlink:href="#af"/><use transform="matrix(0.014105902777777773,0,0,0.014105902777777773,16.78602430555555,0)" xlink:href="#P"/><use transform="matrix(0.014105902777777773,0,0,0.014105902777777773,33.05013020833332,0)" xlink:href="#ai"/><use transform="matrix(0.014105902777777773,0,0,0.014105902777777773,57.425130208333314,0)" xlink:href="#Y"/><use transform="matrix(0.014105902777777773,0,0,0.014105902777777773,72.94162326388886,0)" xlink:href="#N"/><use transform="matrix(0.014105902777777773,0,0,0.014105902777777773,86.92057291666663,0)" xlink:href="#O"/></g><path fill="#3a414a" d="M1027-857c-52 12-85 23-103 68L641-82c-29 63-99 93-172 112L116-789c-20-44-45-54-103-68v-73h453v73c-41 6-70 8-94 23-16 11-12 26-4 45l215 503 202-503c24-56-33-59-81-68v-73h323v73" id="ao"/><g id="x"><use transform="matrix(0.014105902777777773,0,0,0.014105902777777773,0,0)" xlink:href="#ag"/><use transform="matrix(0.014105902777777773,0,0,0.014105902777777773,14.43033854166666,0)" xlink:href="#ao"/><use transform="matrix(0.014105902777777773,0,0,0.014105902777777773,29.100477430555546,0)" xlink:href="#ag"/><use transform="matrix(0.014105902777777773,0,0,0.014105902777777773,43.5308159722222,0)" xlink:href="#aa"/><use transform="matrix(0.014105902777777773,0,0,0.014105902777777773,54.22309027777775,0)" xlink:href="#ag"/><use transform="matrix(0.014105902777777773,0,0,0.014105902777777773,68.65342881944441,0)" xlink:href="#O"/></g><g id="y"><use transform="matrix(0.014105902777777773,0,0,0.014105902777777773,0,0)" xlink:href="#Q"/><use transform="matrix(0.014105902777777773,0,0,0.014105902777777773,8.67513020833333,0)" xlink:href="#R"/></g><g id="z"><use transform="matrix(0.014105902777777773,0,0,0.014105902777777773,0,0)" xlink:href="#ad"/><use transform="matrix(0.014105902777777773,0,0,0.014105902777777773,13.160807291666663,0)" xlink:href="#ag"/><use transform="matrix(0.014105902777777773,0,0,0.014105902777777773,27.59114583333332,0)" xlink:href="#aa"/><use transform="matrix(0.014105902777777773,0,0,0.014105902777777773,38.28342013888887,0)" xlink:href="#N"/><use transform="matrix(0.014105902777777773,0,0,0.014105902777777773,52.26236979166664,0)" xlink:href="#aj"/><use transform="matrix(0.014105902777777773,0,0,0.014105902777777773,67.2005208333333,0)" xlink:href="#X"/><use transform="matrix(0.014105902777777773,0,0,0.014105902777777773,82.3643663194444,0)" xlink:href="#O"/><use transform="matrix(0.014105902777777773,0,0,0.014105902777777773,95.1866319444444,0)" xlink:href="#ah"/></g><g id="A"><use transform="matrix(0.014105902777777773,0,0,0.014105902777777773,0,0)" xlink:href="#ad"/><use transform="matrix(0.014105902777777773,0,0,0.014105902777777773,13.160807291666663,0)" xlink:href="#ag"/><use transform="matrix(0.014105902777777773,0,0,0.014105902777777773,27.59114583333332,0)" xlink:href="#aa"/><use transform="matrix(0.014105902777777773,0,0,0.014105902777777773,38.28342013888887,0)" xlink:href="#N"/><use transform="matrix(0.014105902777777773,0,0,0.014105902777777773,52.26236979166664,0)" xlink:href="#aj"/><use transform="matrix(0.014105902777777773,0,0,0.014105902777777773,67.2005208333333,0)" xlink:href="#X"/><use transform="matrix(0.014105902777777773,0,0,0.014105902777777773,82.3643663194444,0)" xlink:href="#O"/><use transform="matrix(0.014105902777777773,0,0,0.014105902777777773,95.1866319444444,0)" xlink:href="#ah"/></g><path fill="#3a414a" d="M747-550l-165-465-150 465h315zM392-430l-96 289c-7 21 1 36 24 45s62 17 117 23V0H0v-73c73-17 133-13 151-68l349-1066c60-51 139-84 222-110l420 1176c16 49 64 60 124 68V0H769v-73c52-3 87-10 105-20s24-26 17-48L789-430H392" id="ap"/><g id="B"><use transform="matrix(0.014105902777777773,0,0,0.014105902777777773,0,0)" xlink:href="#ap"/><use transform="matrix(0.014105902777777773,0,0,0.014105902777777773,18.154296874999993,0)" xlink:href="#ae"/><use transform="matrix(0.014105902777777773,0,0,0.014105902777777773,34.30555555555554,0)" xlink:href="#ae"/><use transform="matrix(0.014105902777777773,0,0,0.014105902777777773,50.45681423611109,0)" xlink:href="#ab"/><use transform="matrix(0.014105902777777773,0,0,0.014105902777777773,59.13194444444442,0)" xlink:href="#Q"/><use transform="matrix(0.014105902777777773,0,0,0.014105902777777773,67.80707465277776,0)" xlink:href="#ad"/><use transform="matrix(0.014105902777777773,0,0,0.014105902777777773,80.96788194444441,0)" xlink:href="#ag"/><use transform="matrix(0.014105902777777773,0,0,0.014105902777777773,95.39822048611107,0)" xlink:href="#aa"/><use transform="matrix(0.014105902777777773,0,0,0.014105902777777773,106.09049479166663,0)" xlink:href="#Q"/><use transform="matrix(0.014105902777777773,0,0,0.014105902777777773,114.76562499999996,0)" xlink:href="#X"/><use transform="matrix(0.014105902777777773,0,0,0.014105902777777773,129.92947048611106,0)" xlink:href="#af"/></g><g id="C"><use transform="matrix(0.014105902777777773,0,0,0.014105902777777773,0,0)" xlink:href="#ap"/><use transform="matrix(0.014105902777777773,0,0,0.014105902777777773,18.154296874999993,0)" xlink:href="#ae"/><use transform="matrix(0.014105902777777773,0,0,0.014105902777777773,34.30555555555554,0)" xlink:href="#ae"/><use transform="matrix(0.014105902777777773,0,0,0.014105902777777773,50.45681423611109,0)" xlink:href="#ab"/><use transform="matrix(0.014105902777777773,0,0,0.014105902777777773,59.13194444444442,0)" xlink:href="#Q"/><use transform="matrix(0.014105902777777773,0,0,0.014105902777777773,67.80707465277776,0)" xlink:href="#ad"/><use transform="matrix(0.014105902777777773,0,0,0.014105902777777773,80.96788194444441,0)" xlink:href="#ag"/><use transform="matrix(0.014105902777777773,0,0,0.014105902777777773,95.39822048611107,0)" xlink:href="#aa"/><use transform="matrix(0.014105902777777773,0,0,0.014105902777777773,106.09049479166663,0)" xlink:href="#Q"/><use transform="matrix(0.014105902777777773,0,0,0.014105902777777773,114.76562499999996,0)" xlink:href="#X"/><use transform="matrix(0.014105902777777773,0,0,0.014105902777777773,129.92947048611106,0)" xlink:href="#af"/></g><g id="D"><use transform="matrix(0.014105902777777773,0,0,0.014105902777777773,0,0)" xlink:href="#ag"/><use transform="matrix(0.014105902777777773,0,0,0.014105902777777773,14.43033854166666,0)" xlink:href="#ae"/><use transform="matrix(0.014105902777777773,0,0,0.014105902777777773,30.58159722222221,0)" xlink:href="#ae"/><use transform="matrix(0.014105902777777773,0,0,0.014105902777777773,46.73285590277776,0)" xlink:href="#ab"/><use transform="matrix(0.014105902777777773,0,0,0.014105902777777773,55.407986111111086,0)" xlink:href="#Q"/><use transform="matrix(0.014105902777777773,0,0,0.014105902777777773,64.08311631944441,0)" xlink:href="#ad"/><use transform="matrix(0.014105902777777773,0,0,0.014105902777777773,77.24392361111107,0)" xlink:href="#ag"/><use transform="matrix(0.014105902777777773,0,0,0.014105902777777773,91.67426215277773,0)" xlink:href="#aa"/><use transform="matrix(0.014105902777777773,0,0,0.014105902777777773,102.36653645833329,0)" xlink:href="#Q"/><use transform="matrix(0.014105902777777773,0,0,0.014105902777777773,111.04166666666661,0)" xlink:href="#X"/><use transform="matrix(0.014105902777777773,0,0,0.014105902777777773,126.2055121527777,0)" xlink:href="#af"/></g><g id="E"><use transform="matrix(0.014105902777777773,0,0,0.014105902777777773,0,0)" xlink:href="#R"/><use transform="matrix(0.014105902777777773,0,0,0.014105902777777773,16.193576388888882,0)" xlink:href="#ag"/><use transform="matrix(0.014105902777777773,0,0,0.014105902777777773,30.623914930555543,0)" xlink:href="#aa"/><use transform="matrix(0.014105902777777773,0,0,0.014105902777777773,41.31618923611109,0)" xlink:href="#N"/></g><g id="F"><use transform="matrix(0.014105902777777773,0,0,0.014105902777777773,0,0)" xlink:href="#M"/><use transform="matrix(0.014105902777777773,0,0,0.014105902777777773,12.102864583333329,0)" xlink:href="#aa"/><use transform="matrix(0.014105902777777773,0,0,0.014105902777777773,22.79513888888888,0)" xlink:href="#ag"/><use transform="matrix(0.014105902777777773,0,0,0.014105902777777773,37.22547743055554,0)" xlink:href="#aa"/><use transform="matrix(0.014105902777777773,0,0,0.014105902777777773,47.91775173611109,0)" xlink:href="#P"/><use transform="matrix(0.014105902777777773,0,0,0.014105902777777773,64.18185763888886,0)" xlink:href="#M"/></g><path fill="#3a414a" d="M548-164c182 81 360-23 471-115 19 17 36 48 52 68C944-89 816 30 586 30c-256 0-407-160-486-356-64-157-57-393 4-550 101-260 325-453 694-406 98 12 191 44 254 92-9 71-56 133-86 187-7 12-14 21-19 26l-65-14c-57-98-128-167-260-167-252 0-314 258-314 535 0 231 84 390 240 459" id="aq"/><path fill="#3a414a" d="M1328-1187c-71 18-136 14-155 66L797-82C765-17 678 9 602 30L147-1121c-24-45-64-56-134-66v-73h510v73c-53 4-89 11-106 21s-22 24-15 43l325 837 297-835c13-42-24-47-59-55-18-4-41-8-68-11v-73h431v73" id="ar"/><g id="G"><use transform="matrix(0.014105902777777773,0,0,0.014105902777777773,0,0)" xlink:href="#aq"/><use transform="matrix(0.014105902777777773,0,0,0.014105902777777773,16.123046874999993,0)" xlink:href="#ar"/></g><g id="H"><use transform="matrix(0.014105902777777773,0,0,0.014105902777777773,0,0)" xlink:href="#ad"/><use transform="matrix(0.014105902777777773,0,0,0.014105902777777773,13.160807291666663,0)" xlink:href="#X"/><use transform="matrix(0.014105902777777773,0,0,0.014105902777777773,28.324652777777768,0)" xlink:href="#ai"/><use transform="matrix(0.014105902777777773,0,0,0.014105902777777773,52.69965277777776,0)" xlink:href="#ae"/><use transform="matrix(0.014105902777777773,0,0,0.014105902777777773,68.85091145833331,0)" xlink:href="#ag"/><use transform="matrix(0.014105902777777773,0,0,0.014105902777777773,83.28124999999997,0)" xlink:href="#af"/><use transform="matrix(0.014105902777777773,0,0,0.014105902777777773,100.06727430555551,0)" xlink:href="#ah"/></g><g id="I"><use transform="matrix(0.014105902777777773,0,0,0.014105902777777773,0,0)" xlink:href="#aa"/><use transform="matrix(0.014105902777777773,0,0,0.014105902777777773,10.692274305555552,0)" xlink:href="#ah"/><use transform="matrix(0.014105902777777773,0,0,0.014105902777777773,25.362413194444436,0)" xlink:href="#ae"/><use transform="matrix(0.014105902777777773,0,0,0.014105902777777773,41.513671874999986,0)" xlink:href="#N"/></g><g id="J"><use transform="matrix(0.014105902777777773,0,0,0.014105902777777773,0,0)" xlink:href="#ab"/><use transform="matrix(0.014105902777777773,0,0,0.014105902777777773,8.67513020833333,0)" xlink:href="#X"/><use transform="matrix(0.014105902777777773,0,0,0.014105902777777773,23.838975694444436,0)" xlink:href="#ad"/><use transform="matrix(0.014105902777777773,0,0,0.014105902777777773,36.9997829861111,0)" xlink:href="#ag"/><use transform="matrix(0.014105902777777773,0,0,0.014105902777777773,51.43012152777776,0)" xlink:href="#aa"/><use transform="matrix(0.014105902777777773,0,0,0.014105902777777773,62.122395833333314,0)" xlink:href="#Q"/><use transform="matrix(0.014105902777777773,0,0,0.014105902777777773,70.79752604166664,0)" xlink:href="#X"/><use transform="matrix(0.014105902777777773,0,0,0.014105902777777773,85.96137152777774,0)" xlink:href="#af"/></g><g id="K"><use transform="matrix(0.014105902777777773,0,0,0.014105902777777773,0,0)" xlink:href="#ab"/><use transform="matrix(0.014105902777777773,0,0,0.014105902777777773,8.67513020833333,0)" xlink:href="#X"/><use transform="matrix(0.014105902777777773,0,0,0.014105902777777773,23.838975694444436,0)" xlink:href="#aj"/><use transform="matrix(0.014105902777777773,0,0,0.014105902777777773,38.7771267361111,0)" xlink:href="#X"/></g></defs></g></svg>